SplineFontDB: 3.0
FontName: AVHersheyDuplexHeavy
FullName: AVHershey Duplex Heavy
FamilyName: AVHershey Duplex
Weight: Heavy
Copyright: Made in 2016 by Stewart C. Russell - scruss.com\n\nLicence: Dual-licensed CC0/WTFPL (srsly)\n\nDerived from character stroke coordinates by Allen V. Hershey published in "Calligraphy for Computers" (US Naval Weapons Laboratory, 1967-08-01, NWL Report No. 2101, NTIS accession number AD-662 398) and elsewhere. These coordinates were published without copyright.\n\nThe efforts of the Usenet Font Consortium (James Hurt, et al) who reformatted Hershey's data and published it to mod.sources on 1986-04-01 [Volume 4, Issue 42] are greatly appreciated.
UComments: "2016-2-6: Created with FontForge (http://fontforge.org)"
Version: 000.001
ItalicAngle: 0
UnderlinePosition: -100
UnderlineWidth: 50
Ascent: 800
Descent: 200
InvalidEm: 0
LayerCount: 2
Layer: 0 0 "Back" 1
Layer: 1 0 "Fore" 0
XUID: [1021 437 -1798226743 11962366]
FSType: 0
OS2Version: 0
OS2_WeightWidthSlopeOnly: 0
OS2_UseTypoMetrics: 1
CreationTime: 1454819065
ModificationTime: 1454976692
PfmFamily: 17
TTFWeight: 800
TTFWidth: 5
LineGap: 90
VLineGap: 0
OS2TypoAscent: 0
OS2TypoAOffset: 1
OS2TypoDescent: 0
OS2TypoDOffset: 1
OS2TypoLinegap: 90
OS2WinAscent: 0
OS2WinAOffset: 1
OS2WinDescent: 0
OS2WinDOffset: 1
HheadAscent: 0
HheadAOffset: 1
HheadDescent: 0
HheadDOffset: 1
OS2Vendor: 'PfEd'
MarkAttachClasses: 1
DEI: 91125
Encoding: ISO8859-1
UnicodeInterp: none
NameList: AGL For New Fonts
DisplaySize: -48
AntiAlias: 1
FitToEm: 1
WinInfo: 0 29 11
BeginPrivate: 0
EndPrivate
BeginChars: 260 83

StartChar: exclam
Encoding: 33 33 0
Width: 270
VWidth: 0
Flags: W
HStem: 0 21G<107 164> 580 20G<107 164>
VStem: 81 109<198 574>
LayerCount: 2
Back
Fore
SplineSet
69 121 m 1
 93 145 l 1
 107 155 l 1
 148 158 l 1
 164 155 l 1
 177 145 l 1
 202 121 l 1
 211 107 l 1
 214 67 l 1
 211 50 l 1
 202 37 l 1
 177 12 l 1
 164 3 l 1
 123 0 l 1
 107 3 l 1
 93 12 l 1
 69 37 l 1
 60 50 l 1
 56 91 l 1
 60 107 l 1
 69 121 l 1
81 558 m 1
 84 574 l 1
 90 583 l 1
 107 597 l 1
 148 600 l 1
 164 597 l 1
 177 588 l 1
 186 574 l 1
 190 558 l 1
 190 214 l 1
 186 198 l 1
 177 184 l 1
 164 175 l 1
 148 172 l 1
 107 175 l 1
 93 184 l 1
 84 198 l 1
 81 214 l 1
 81 558 l 1
EndSplineSet
EndChar

StartChar: dollar
Encoding: 36 36 1
Width: 466
VWidth: 0
Flags: W
VStem: 178 109<-72 4 122 232 405 478 596 672>
LayerCount: 2
Back
Fore
SplineSet
151 145 m 1
 178 122 l 1
 178 286 l 1
 103 324 l 1
 67 356 l 1
 35 416 l 1
 31 435 l 1
 31 484 l 1
 34 500 l 1
 43 514 l 1
 92 563 l 1
 108 573 l 1
 178 596 l 1
 178 656 l 1
 181 672 l 1
 190 686 l 1
 204 695 l 1
 245 698 l 1
 261 695 l 1
 274 686 l 1
 283 672 l 1
 287 656 l 1
 287 596 l 1
 356 573 l 1
 373 563 l 1
 422 514 l 1
 431 500 l 1
 434 484 l 1
 431 468 l 1
 422 455 l 1
 408 445 l 1
 392 442 l 1
 343 442 l 1
 327 445 l 1
 287 478 l 1
 287 351 l 1
 348 317 l 1
 405 257 l 1
 430 208 l 1
 434 189 l 1
 434 140 l 1
 430 122 l 1
 405 72 l 1
 373 37 l 1
 356 27 l 1
 287 4 l 1
 287 -56 l 1
 283 -72 l 1
 274 -86 l 1
 261 -95 l 1
 220 -98 l 1
 204 -95 l 1
 190 -86 l 1
 181 -72 l 1
 178 -56 l 1
 178 4 l 1
 108 27 l 1
 92 37 l 1
 43 86 l 1
 34 100 l 1
 31 116 l 1
 34 132 l 1
 43 145 l 1
 56 155 l 1
 73 158 l 1
 122 158 l 1
 138 155 l 1
 151 145 l 1
178 405 m 1
 178 483 l 1
 144 472 l 1
 139 467 l 1
 139 445 l 1
 153 417 l 1
 178 405 l 1
300 121 m 1
 316 132 l 1
 325 150 l 1
 325 180 l 1
 308 214 l 1
 287 232 l 1
 287 117 l 1
 300 121 l 1
EndSplineSet
EndChar

StartChar: ampersand
Encoding: 38 38 2
Width: 614
VWidth: 0
Flags: W
HStem: 0 109<181 260 500 556> 319 109<500 556> 580 20G<226 288>
VStem: 129 109<420.462 474>
LayerCount: 2
Back
Fore
SplineSet
158 344 m 1
 129 435 l 1
 129 484 l 1
 134 503 l 1
 166 563 l 1
 226 596 l 1
 245 600 l 1
 269 600 l 1
 288 596 l 1
 337 571 l 1
 348 563 l 1
 356 552 l 1
 381 503 l 1
 385 484 l 1
 385 435 l 1
 381 416 l 1
 348 356 l 1
 304 312 l 1
 353 253 l 1
 379 331 l 1
 412 391 l 1
 472 424 l 1
 491 428 l 1
 540 428 l 1
 556 425 l 1
 569 416 l 1
 579 402 l 1
 582 386 l 1
 579 345 l 1
 569 332 l 1
 556 323 l 1
 540 319 l 1
 500 319 l 1
 489 314 l 1
 480 296 l 1
 434 158 l 1
 466 126 l 1
 500 109 l 1
 540 109 l 1
 556 105 l 1
 569 96 l 1
 579 83 l 1
 582 42 l 1
 579 26 l 1
 569 12 l 1
 556 3 l 1
 540 0 l 1
 491 0 l 1
 472 4 l 1
 423 29 l 1
 380 69 l 1
 337 29 l 1
 288 4 l 1
 269 0 l 1
 171 0 l 1
 152 4 l 1
 92 37 l 1
 60 72 l 1
 35 122 l 1
 31 140 l 1
 31 189 l 1
 35 208 l 1
 68 268 l 1
 117 317 l 1
 158 344 l 1
243 486 m 1
 238 474 l 1
 238 442 l 1
 251 402 l 1
 259 411 l 1
 277 445 l 1
 277 474 l 1
 271 486 l 1
 260 491 l 1
 243 486 l 1
217 256 m 1
 173 230 l 1
 157 214 l 1
 139 180 l 1
 139 150 l 1
 153 122 l 1
 181 109 l 1
 260 109 l 1
 294 126 l 1
 310 144 l 1
 217 256 l 1
EndSplineSet
EndChar

StartChar: parenleft
Encoding: 40 40 3
Width: 343
VWidth: 0
Flags: W
HStem: -172 21G<229 285>
VStem: 32 107<183.609 342.391>
LayerCount: 2
Back
Fore
SplineSet
166 637 m 1
 215 686 l 1
 229 695 l 1
 245 698 l 1
 285 695 l 1
 299 686 l 1
 308 672 l 1
 311 656 l 1
 308 640 l 1
 299 627 l 1
 253 580 l 1
 207 512 l 1
 162 421 l 1
 139 308 l 1
 139 218 l 1
 162 105 l 1
 207 14 l 1
 253 -54 l 1
 299 -100 l 1
 308 -114 l 1
 311 -130 l 1
 308 -146 l 1
 299 -160 l 1
 285 -169 l 1
 269 -172 l 1
 229 -169 l 1
 215 -160 l 1
 161 -104 l 1
 111 -30 l 1
 56 83 l 1
 32 206 l 1
 32 321 l 1
 56 443 l 1
 109 552 l 1
 166 637 l 1
EndSplineSet
EndChar

StartChar: parenright
Encoding: 41 41 4
Width: 343
VWidth: 0
Flags: W
HStem: -172 21G<57 113>
VStem: 203 107<183.609 342.391>
LayerCount: 2
Back
Fore
SplineSet
31 656 m 1
 34 672 l 1
 43 686 l 1
 57 695 l 1
 97 698 l 1
 113 695 l 1
 127 686 l 1
 181 630 l 1
 233 552 l 1
 282 454 l 1
 311 312 l 1
 310 206 l 1
 282 72 l 1
 233 -26 l 1
 181 -104 l 1
 127 -160 l 1
 113 -169 l 1
 97 -172 l 1
 57 -169 l 1
 43 -160 l 1
 34 -146 l 1
 31 -130 l 1
 34 -114 l 1
 43 -100 l 1
 89 -54 l 1
 135 14 l 1
 180 105 l 1
 203 218 l 1
 203 308 l 1
 180 421 l 1
 135 512 l 1
 89 580 l 1
 43 627 l 1
 34 640 l 1
 31 656 l 1
EndSplineSet
EndChar

StartChar: asterisk
Encoding: 42 42 5
Width: 395
VWidth: 0
Flags: W
HStem: 580 20G<181 213>
VStem: 32 330
LayerCount: 2
Back
Fore
SplineSet
32 484 m 1
 35 500 l 1
 44 514 l 1
 64 525 l 1
 112 524 l 1
 134 510 l 1
 131 539 l 1
 135 552 l 1
 143 563 l 1
 167 588 l 1
 181 597 l 1
 197 600 l 1
 213 597 l 1
 227 588 l 1
 259 552 l 1
 263 539 l 1
 260 510 l 1
 282 524 l 1
 320 526 l 1
 330 525 l 1
 345 518 l 1
 356 506 l 1
 362 484 l 1
 359 443 l 1
 349 430 l 1
 335 421 l 1
 310 411 l 1
 335 400 l 1
 349 391 l 1
 359 378 l 1
 362 337 l 1
 356 315 l 1
 345 303 l 1
 330 296 l 1
 320 295 l 1
 282 297 l 1
 260 311 l 1
 263 282 l 1
 259 269 l 1
 251 258 l 1
 227 233 l 1
 213 224 l 1
 197 221 l 1
 181 224 l 1
 167 233 l 1
 135 269 l 1
 131 282 l 1
 134 311 l 1
 112 297 l 1
 74 295 l 1
 64 296 l 1
 49 303 l 1
 38 315 l 1
 32 337 l 1
 35 378 l 1
 45 391 l 1
 59 400 l 1
 84 411 l 1
 59 421 l 1
 45 430 l 1
 35 443 l 1
 32 484 l 1
EndSplineSet
EndChar

StartChar: plus
Encoding: 43 43 6
Width: 614
VWidth: 0
Flags: W
HStem: 221 109<82 253 362 532>
VStem: 253 109<50 221 330 500>
LayerCount: 2
Back
Fore
SplineSet
56 288 m 1
 60 304 l 1
 69 317 l 1
 82 327 l 1
 98 330 l 1
 253 330 l 1
 253 484 l 1
 256 500 l 1
 265 514 l 1
 279 523 l 1
 320 526 l 1
 336 523 l 1
 349 514 l 1
 358 500 l 1
 362 484 l 1
 362 330 l 1
 516 330 l 1
 532 327 l 1
 546 317 l 1
 555 304 l 1
 558 263 l 1
 555 247 l 1
 546 233 l 1
 532 224 l 1
 516 221 l 1
 362 221 l 1
 362 67 l 1
 358 50 l 1
 349 37 l 1
 336 28 l 1
 295 25 l 1
 279 28 l 1
 265 37 l 1
 256 50 l 1
 253 67 l 1
 253 221 l 1
 98 221 l 1
 82 224 l 1
 69 233 l 1
 60 247 l 1
 56 288 l 1
EndSplineSet
EndChar

StartChar: comma
Encoding: 44 44 7
Width: 270
VWidth: 0
Flags: W
HStem: -98 253
VStem: 57 157
LayerCount: 2
Back
Fore
SplineSet
214 67 m 1
 214 17 l 1
 211 1 l 1
 177 -61 l 1
 117 -94 l 1
 101 -98 l 1
 85 -96 l 1
 71 -88 l 1
 61 -75 l 1
 57 -59 l 1
 59 -43 l 1
 67 -29 l 1
 80 -19 l 1
 112 -3 l 1
 113 2 l 1
 93 12 l 1
 69 37 l 1
 60 50 l 1
 56 91 l 1
 60 107 l 1
 69 121 l 1
 93 145 l 1
 107 155 l 1
 148 158 l 1
 164 155 l 1
 177 145 l 1
 202 121 l 1
 211 107 l 1
 214 67 l 1
EndSplineSet
EndChar

StartChar: hyphen
Encoding: 45 45 8
Width: 614
VWidth: 0
Flags: W
HStem: 221 109<82 532>
LayerCount: 2
Back
Fore
SplineSet
56 288 m 1
 60 304 l 1
 69 317 l 1
 82 327 l 1
 98 330 l 1
 516 330 l 1
 532 327 l 1
 546 317 l 1
 555 304 l 1
 558 263 l 1
 555 247 l 1
 546 233 l 1
 532 224 l 1
 516 221 l 1
 98 221 l 1
 82 224 l 1
 69 233 l 1
 60 247 l 1
 56 288 l 1
EndSplineSet
EndChar

StartChar: period
Encoding: 46 46 9
Width: 270
VWidth: 0
Flags: W
HStem: 3 152
VStem: 56 155
LayerCount: 2
Back
Fore
SplineSet
69 121 m 1
 93 145 l 1
 107 155 l 1
 148 158 l 1
 164 155 l 1
 177 145 l 1
 202 121 l 1
 211 107 l 1
 214 67 l 1
 211 50 l 1
 202 37 l 1
 177 12 l 1
 164 3 l 1
 123 0 l 1
 107 3 l 1
 93 12 l 1
 69 37 l 1
 60 50 l 1
 56 91 l 1
 60 107 l 1
 69 121 l 1
EndSplineSet
EndChar

StartChar: slash
Encoding: 47 47 10
Width: 566
VWidth: 0
Flags: W
HStem: -172 21G<32 85>
LayerCount: 2
Back
Fore
SplineSet
12 -109 m 1
 455 677 l 1
 465 689 l 1
 480 697 l 1
 516 698 l 1
 533 695 l 1
 547 685 l 1
 556 670 l 1
 558 652 l 1
 552 636 l 1
 110 -151 l 1
 99 -163 l 1
 85 -170 l 1
 49 -172 l 1
 32 -168 l 1
 18 -158 l 1
 9 -143 l 1
 7 -126 l 1
 12 -109 l 1
EndSplineSet
EndChar

StartChar: zero
Encoding: 48 48 11
Width: 492
VWidth: 0
Flags: W
HStem: 0 109<208 285.5> 491 108<206.5 284>
VStem: 32 109<232 368> 351 108<232 368>
LayerCount: 2
Back
Fore
SplineSet
215 599 m 1
 284 598 l 1
 358 573 l 1
 370 567 l 1
 379 557 l 1
 428 483 l 1
 435 468 l 1
 460 337 l 1
 459 255 l 1
 435 132 l 1
 428 117 l 1
 370 33 l 1
 358 27 l 1
 271 0 l 1
 208 2 l 1
 134 27 l 1
 122 33 l 1
 113 43 l 1
 64 117 l 1
 57 132 l 1
 32 263 l 1
 33 345 l 1
 57 468 l 1
 64 483 l 1
 122 567 l 1
 134 573 l 1
 215 599 l 1
185 477 m 1
 163 443 l 1
 141 333 l 1
 141 267 l 1
 163 157 l 1
 185 123 l 1
 228 109 l 1
 264 109 l 1
 307 123 l 1
 329 157 l 1
 351 267 l 1
 351 333 l 1
 329 443 l 1
 307 477 l 1
 264 491 l 1
 228 491 l 1
 185 477 l 1
EndSplineSet
EndChar

StartChar: one
Encoding: 49 49 12
Width: 492
VWidth: 0
Flags: W
HStem: 0 21G<229 286> 580 20G<253 286>
VStem: 203 109<26 416>
LayerCount: 2
Back
Fore
SplineSet
105 435 m 1
 107 473 l 1
 115 487 l 1
 128 497 l 1
 171 519 l 1
 240 588 l 1
 253 597 l 1
 270 600 l 1
 286 597 l 1
 299 588 l 1
 308 574 l 1
 312 558 l 1
 312 42 l 1
 308 26 l 1
 299 12 l 1
 286 3 l 1
 245 0 l 1
 229 3 l 1
 215 12 l 1
 206 26 l 1
 203 42 l 1
 203 416 l 1
 165 398 l 1
 149 393 l 1
 132 396 l 1
 118 405 l 1
 108 419 l 1
 105 435 l 1
EndSplineSet
EndChar

StartChar: two
Encoding: 50 50 13
Width: 492
VWidth: 0
Flags: W
HStem: 0 109<215 434> 491 109<207 285>
LayerCount: 2
Back
Fore
SplineSet
32 41 m 1
 34 56 l 1
 43 70 l 1
 262 314 l 1
 308 383 l 1
 327 420 l 1
 327 450 l 1
 313 478 l 1
 285 491 l 1
 207 491 l 1
 179 478 l 1
 165 450 l 1
 162 419 l 1
 153 405 l 1
 139 396 l 1
 123 393 l 1
 82 396 l 1
 69 405 l 1
 60 419 l 1
 57 460 l 1
 61 478 l 1
 86 528 l 1
 118 563 l 1
 129 571 l 1
 178 596 l 1
 197 600 l 1
 295 600 l 1
 314 596 l 1
 363 571 l 1
 399 539 l 1
 431 478 l 1
 435 460 l 1
 435 411 l 1
 431 392 l 1
 404 338 l 1
 355 264 l 1
 215 109 l 1
 418 109 l 1
 434 105 l 1
 448 96 l 1
 457 83 l 1
 460 42 l 1
 457 26 l 1
 448 12 l 1
 434 3 l 1
 418 0 l 1
 74 0 l 1
 58 3 l 1
 44 12 l 1
 35 26 l 1
 32 41 l 1
EndSplineSet
EndChar

StartChar: three
Encoding: 51 51 14
Width: 492
VWidth: 0
Flags: W
HStem: 2 107<184 285.583> 491 109<107 264>
LayerCount: 2
Back
Fore
SplineSet
132 164 m 1
 150 132 l 1
 166 121 l 1
 204 109 l 1
 264 109 l 1
 301 121 l 1
 324 136 l 1
 339 159 l 1
 351 196 l 1
 351 207 l 1
 339 245 l 1
 324 267 l 1
 301 282 l 1
 264 295 l 1
 186 296 l 1
 171 304 l 1
 160 316 l 1
 155 337 l 1
 158 353 l 1
 164 363 l 1
 264 491 l 1
 123 491 l 1
 107 495 l 1
 93 504 l 1
 84 517 l 1
 81 533 l 1
 84 574 l 1
 93 588 l 1
 107 597 l 1
 123 600 l 1
 393 600 l 1
 409 597 l 1
 422 589 l 1
 431 576 l 1
 435 561 l 1
 434 546 l 1
 427 532 l 1
 316 390 l 1
 358 377 l 1
 374 367 l 1
 423 317 l 1
 433 301 l 1
 458 227 l 1
 460 189 l 1
 433 102 l 1
 423 86 l 1
 374 37 l 1
 358 27 l 1
 271 0 l 1
 184 2 l 1
 110 27 l 1
 93 37 l 1
 61 72 l 1
 36 122 l 1
 32 138 l 1
 35 155 l 1
 43 169 l 1
 57 179 l 1
 74 182 l 1
 112 180 l 1
 126 172 l 1
 132 164 l 1
EndSplineSet
EndChar

StartChar: four
Encoding: 52 52 15
Width: 493
VWidth: 0
Flags: W
HStem: 0 21G<304 360> 123 108<196 278 386 459> 579 20G<321 368>
VStem: 278 108<26 123 231 350>
LayerCount: 2
Back
Fore
SplineSet
39 189 m 1
 310 582 l 1
 321 593 l 1
 337 599 l 1
 353 599 l 1
 368 593 l 1
 383 574 l 1
 386 558 l 1
 386 231 l 1
 443 231 l 1
 459 228 l 1
 472 219 l 1
 481 206 l 1
 485 189 l 1
 481 149 l 1
 472 135 l 1
 459 126 l 1
 443 123 l 1
 386 123 l 1
 386 42 l 1
 383 26 l 1
 374 12 l 1
 360 3 l 1
 320 0 l 1
 304 3 l 1
 290 12 l 1
 281 26 l 1
 278 42 l 1
 278 123 l 1
 74 123 l 1
 59 126 l 1
 46 133 l 1
 37 145 l 1
 32 160 l 1
 33 175 l 1
 39 189 l 1
278 350 m 1
 196 231 l 1
 278 231 l 1
 278 350 l 1
EndSplineSet
EndChar

StartChar: five
Encoding: 53 53 16
Width: 492
VWidth: 0
Flags: W
HStem: 0 109<184 285.583> 319 109<182 284> 491 109<184 385>
VStem: 351 109<174.417 252>
LayerCount: 2
Back
Fore
SplineSet
57 341 m 1
 81 563 l 1
 86 578 l 1
 97 591 l 1
 111 598 l 1
 123 600 l 1
 369 600 l 1
 385 597 l 1
 399 588 l 1
 408 574 l 1
 411 533 l 1
 408 517 l 1
 399 504 l 1
 385 495 l 1
 369 491 l 1
 184 491 l 1
 174 423 l 1
 197 428 l 1
 284 426 l 1
 358 401 l 1
 374 391 l 1
 423 342 l 1
 433 326 l 1
 458 252 l 1
 460 189 l 1
 433 102 l 1
 423 86 l 1
 374 37 l 1
 358 27 l 1
 271 0 l 1
 184 2 l 1
 110 27 l 1
 93 37 l 1
 61 72 l 1
 36 122 l 1
 32 138 l 1
 35 155 l 1
 43 169 l 1
 57 179 l 1
 74 182 l 1
 112 180 l 1
 128 170 l 1
 150 132 l 1
 166 121 l 1
 204 109 l 1
 264 109 l 1
 301 121 l 1
 324 136 l 1
 339 159 l 1
 351 196 l 1
 351 232 l 1
 339 269 l 1
 324 292 l 1
 301 307 l 1
 264 319 l 1
 182 319 l 1
 142 299 l 1
 123 295 l 1
 94 295 l 1
 78 300 l 1
 66 311 l 1
 58 325 l 1
 57 341 l 1
EndSplineSet
EndChar

StartChar: six
Encoding: 54 54 17
Width: 491
VWidth: 0
Flags: W
HStem: 0 21G<232 283> 491 107<232 287>
LayerCount: 2
Back
Fore
SplineSet
174 382 m 1
 232 401 l 1
 270 403 l 1
 283 401 l 1
 357 377 l 1
 373 367 l 1
 422 317 l 1
 432 301 l 1
 457 227 l 1
 459 189 l 1
 457 176 l 1
 432 102 l 1
 422 86 l 1
 373 37 l 1
 357 27 l 1
 283 2 l 1
 245 0 l 1
 232 2 l 1
 158 27 l 1
 142 37 l 1
 92 86 l 1
 81 106 l 1
 57 204 l 1
 56 337 l 1
 81 468 l 1
 87 483 l 1
 146 567 l 1
 232 598 l 1
 294 600 l 1
 381 573 l 1
 395 565 l 1
 405 552 l 1
 430 503 l 1
 434 487 l 1
 432 470 l 1
 423 455 l 1
 409 446 l 1
 392 442 l 1
 353 445 l 1
 340 453 l 1
 323 479 l 1
 287 491 l 1
 252 491 l 1
 209 477 l 1
 186 443 l 1
 174 382 l 1
177 245 m 1
 166 212 l 1
 181 153 l 1
 192 136 l 1
 214 121 l 1
 252 109 l 1
 263 109 l 1
 300 121 l 1
 323 136 l 1
 338 159 l 1
 350 196 l 1
 350 207 l 1
 338 245 l 1
 323 267 l 1
 300 282 l 1
 263 295 l 1
 252 295 l 1
 214 282 l 1
 192 267 l 1
 177 245 l 1
EndSplineSet
EndChar

StartChar: seven
Encoding: 55 55 18
Width: 493
VWidth: 0
Flags: W
HStem: 0 21G<131 186> 491 109<58 315>
LayerCount: 2
Back
Fore
SplineSet
32 558 m 1
 35 574 l 1
 44 588 l 1
 58 597 l 1
 74 600 l 1
 418 600 l 1
 434 597 l 1
 448 587 l 1
 457 573 l 1
 460 556 l 1
 456 540 l 1
 210 24 l 1
 200 11 l 1
 186 2 l 1
 148 0 l 1
 131 3 l 1
 117 13 l 1
 108 27 l 1
 106 44 l 1
 110 60 l 1
 315 491 l 1
 74 491 l 1
 58 495 l 1
 44 504 l 1
 35 517 l 1
 32 558 l 1
EndSplineSet
EndChar

StartChar: eight
Encoding: 56 56 19
Width: 492
VWidth: 0
Flags: W
HStem: 2 107<181.833 308> 491 108<204 288>
VStem: 32 109<150 204> 351 109<150 204>
LayerCount: 2
Back
Fore
SplineSet
190 599 m 1
 295 600 l 1
 382 573 l 1
 396 565 l 1
 406 552 l 1
 431 503 l 1
 435 484 l 1
 435 435 l 1
 431 416 l 1
 406 367 l 1
 379 337 l 1
 423 293 l 1
 456 233 l 1
 460 214 l 1
 460 140 l 1
 456 122 l 1
 431 72 l 1
 399 37 l 1
 382 27 l 1
 308 2 l 1
 197 0 l 1
 110 27 l 1
 93 37 l 1
 61 72 l 1
 36 122 l 1
 32 140 l 1
 32 214 l 1
 36 233 l 1
 69 293 l 1
 113 337 l 1
 86 367 l 1
 61 416 l 1
 57 435 l 1
 57 484 l 1
 61 503 l 1
 86 552 l 1
 96 565 l 1
 110 573 l 1
 190 599 l 1
246 281 m 1
 212 273 l 1
 173 253 l 1
 158 238 l 1
 141 204 l 1
 141 150 l 1
 150 132 l 1
 166 121 l 1
 204 109 l 1
 288 109 l 1
 326 121 l 1
 342 132 l 1
 351 150 l 1
 351 204 l 1
 334 238 l 1
 319 253 l 1
 280 273 l 1
 246 281 l 1
246 392 m 1
 280 401 l 1
 313 417 l 1
 327 445 l 1
 327 474 l 1
 324 479 l 1
 288 491 l 1
 204 491 l 1
 168 479 l 1
 165 474 l 1
 165 445 l 1
 179 417 l 1
 212 401 l 1
 246 392 l 1
EndSplineSet
EndChar

StartChar: nine
Encoding: 57 57 20
Width: 492
VWidth: 0
Flags: W
HStem: 2 107<204 259> 580 20G<208 259>
LayerCount: 2
Back
Fore
SplineSet
317 218 m 1
 259 199 l 1
 221 197 l 1
 208 199 l 1
 134 223 l 1
 118 233 l 1
 69 283 l 1
 59 299 l 1
 34 373 l 1
 32 411 l 1
 34 424 l 1
 59 498 l 1
 69 514 l 1
 118 563 l 1
 134 573 l 1
 208 598 l 1
 246 600 l 1
 259 598 l 1
 333 573 l 1
 349 563 l 1
 399 514 l 1
 410 494 l 1
 434 396 l 1
 435 263 l 1
 410 132 l 1
 404 117 l 1
 345 33 l 1
 259 2 l 1
 197 0 l 1
 110 27 l 1
 96 35 l 1
 86 48 l 1
 61 97 l 1
 57 113 l 1
 59 130 l 1
 68 145 l 1
 82 154 l 1
 99 158 l 1
 138 155 l 1
 151 147 l 1
 168 121 l 1
 204 109 l 1
 239 109 l 1
 282 123 l 1
 305 157 l 1
 317 218 l 1
277 318 m 1
 299 333 l 1
 314 355 l 1
 325 388 l 1
 310 447 l 1
 299 464 l 1
 277 479 l 1
 239 491 l 1
 228 491 l 1
 191 479 l 1
 168 464 l 1
 153 441 l 1
 141 404 l 1
 141 393 l 1
 153 355 l 1
 168 333 l 1
 191 318 l 1
 228 305 l 1
 239 305 l 1
 277 318 l 1
EndSplineSet
EndChar

StartChar: colon
Encoding: 58 58 21
Width: 270
VWidth: 0
Flags: W
HStem: 0 21G<107 164> 408 20G<107 164>
VStem: 56 155
LayerCount: 2
Back
Fore
SplineSet
69 391 m 1
 93 416 l 1
 107 425 l 1
 148 428 l 1
 164 425 l 1
 177 416 l 1
 202 391 l 1
 211 378 l 1
 214 337 l 1
 211 321 l 1
 202 307 l 1
 177 283 l 1
 164 273 l 1
 123 270 l 1
 107 273 l 1
 93 283 l 1
 69 307 l 1
 60 321 l 1
 56 361 l 1
 60 378 l 1
 69 391 l 1
69 121 m 1
 93 145 l 1
 107 155 l 1
 148 158 l 1
 164 155 l 1
 177 145 l 1
 202 121 l 1
 211 107 l 1
 214 67 l 1
 211 50 l 1
 202 37 l 1
 177 12 l 1
 164 3 l 1
 123 0 l 1
 107 3 l 1
 93 12 l 1
 69 37 l 1
 60 50 l 1
 56 91 l 1
 60 107 l 1
 69 121 l 1
EndSplineSet
EndChar

StartChar: semicolon
Encoding: 59 59 22
Width: 270
VWidth: 0
Flags: W
HStem: 408 20G<107 164>
VStem: 56 155
LayerCount: 2
Back
Fore
SplineSet
69 391 m 1
 93 416 l 1
 107 425 l 1
 148 428 l 1
 164 425 l 1
 177 416 l 1
 202 391 l 1
 211 378 l 1
 214 337 l 1
 211 321 l 1
 202 307 l 1
 177 283 l 1
 164 273 l 1
 123 270 l 1
 107 273 l 1
 93 283 l 1
 69 307 l 1
 60 321 l 1
 56 361 l 1
 60 378 l 1
 69 391 l 1
214 67 m 1
 214 17 l 1
 211 1 l 1
 177 -61 l 1
 117 -94 l 1
 101 -98 l 1
 85 -96 l 1
 71 -88 l 1
 61 -75 l 1
 57 -59 l 1
 59 -43 l 1
 67 -29 l 1
 80 -19 l 1
 112 -3 l 1
 113 2 l 1
 93 12 l 1
 69 37 l 1
 60 50 l 1
 56 91 l 1
 60 107 l 1
 69 121 l 1
 93 145 l 1
 107 155 l 1
 148 158 l 1
 164 155 l 1
 177 145 l 1
 202 121 l 1
 211 107 l 1
 214 67 l 1
EndSplineSet
EndChar

StartChar: equal
Encoding: 61 61 23
Width: 614
VWidth: 0
Flags: W
HStem: 123 108<82 532> 319 109<82 532>
LayerCount: 2
Back
Fore
SplineSet
56 386 m 1
 60 402 l 1
 69 416 l 1
 82 425 l 1
 98 428 l 1
 516 428 l 1
 532 425 l 1
 546 416 l 1
 555 402 l 1
 558 361 l 1
 555 345 l 1
 546 332 l 1
 532 323 l 1
 516 319 l 1
 98 319 l 1
 82 323 l 1
 69 332 l 1
 60 345 l 1
 56 386 l 1
56 189 m 1
 60 206 l 1
 69 219 l 1
 82 228 l 1
 98 231 l 1
 516 231 l 1
 532 228 l 1
 546 219 l 1
 555 206 l 1
 558 165 l 1
 555 149 l 1
 546 135 l 1
 532 126 l 1
 516 123 l 1
 98 123 l 1
 82 126 l 1
 69 135 l 1
 60 149 l 1
 56 189 l 1
EndSplineSet
EndChar

StartChar: question
Encoding: 63 63 24
Width: 466
VWidth: 0
Flags: W
HStem: 0 21G<204 261> 491 107<182 284.167>
VStem: 178 109<198 266>
LayerCount: 2
Back
Fore
SplineSet
31 435 m 1
 31 460 l 1
 35 478 l 1
 60 528 l 1
 92 563 l 1
 108 573 l 1
 182 598 l 1
 269 600 l 1
 356 573 l 1
 373 563 l 1
 397 539 l 1
 430 478 l 1
 434 460 l 1
 434 411 l 1
 430 392 l 1
 405 343 l 1
 373 307 l 1
 312 275 l 1
 287 266 l 1
 287 214 l 1
 283 198 l 1
 274 184 l 1
 261 175 l 1
 220 172 l 1
 204 175 l 1
 190 184 l 1
 181 198 l 1
 178 214 l 1
 178 312 l 1
 181 328 l 1
 190 342 l 1
 204 351 l 1
 278 376 l 1
 315 399 l 1
 325 420 l 1
 325 450 l 1
 316 468 l 1
 300 479 l 1
 262 491 l 1
 202 491 l 1
 165 479 l 1
 148 468 l 1
 139 450 l 1
 136 419 l 1
 127 405 l 1
 113 396 l 1
 97 393 l 1
 56 396 l 1
 43 405 l 1
 37 414 l 1
 31 435 l 1
166 121 m 1
 190 145 l 1
 204 155 l 1
 245 158 l 1
 261 155 l 1
 274 145 l 1
 299 121 l 1
 308 107 l 1
 311 67 l 1
 308 50 l 1
 299 37 l 1
 274 12 l 1
 261 3 l 1
 220 0 l 1
 204 3 l 1
 190 12 l 1
 166 37 l 1
 157 50 l 1
 153 91 l 1
 157 107 l 1
 166 121 l 1
EndSplineSet
EndChar

StartChar: A
Encoding: 65 65 25
Width: 492
VWidth: 0
Flags: W
HStem: 0 21G<32 89 401 458> 123 108<192 298> 580 20G<230 262>
LayerCount: 2
Back
Fore
SplineSet
7 41 m 1
 9 57 l 1
 207 575 l 1
 216 589 l 1
 230 597 l 1
 246 600 l 1
 262 596 l 1
 276 587 l 1
 284 573 l 1
 481 57 l 1
 484 41 l 1
 480 25 l 1
 471 12 l 1
 458 3 l 1
 442 0 l 1
 401 3 l 1
 387 13 l 1
 378 27 l 1
 340 123 l 1
 150 123 l 1
 112 27 l 1
 103 13 l 1
 89 3 l 1
 73 0 l 1
 32 3 l 1
 19 12 l 1
 10 25 l 1
 7 41 l 1
245 368 m 1
 192 231 l 1
 298 231 l 1
 245 368 l 1
EndSplineSet
EndChar

StartChar: B
Encoding: 66 66 26
Width: 491
VWidth: 0
Flags: W
HStem: 0 109<164 309.312> 246 108<164 287> 491 109<164 309.312>
VStem: 56 108<109 246 354 491> 350 109<150 204 396 450>
CounterMasks: 1 e0
LayerCount: 2
Back
Fore
SplineSet
56 558 m 1
 59 574 l 1
 68 588 l 1
 81 597 l 1
 98 600 l 1
 294 600 l 1
 381 573 l 1
 398 563 l 1
 430 528 l 1
 455 478 l 1
 459 460 l 1
 459 386 l 1
 455 367 l 1
 430 318 l 1
 415 300 l 1
 430 282 l 1
 455 233 l 1
 459 214 l 1
 459 140 l 1
 455 122 l 1
 430 72 l 1
 398 37 l 1
 381 27 l 1
 294 0 l 1
 98 0 l 1
 81 3 l 1
 68 12 l 1
 59 26 l 1
 56 42 l 1
 56 558 l 1
164 491 m 1
 164 354 l 1
 287 354 l 1
 338 371 l 1
 350 396 l 1
 350 450 l 1
 338 475 l 1
 287 491 l 1
 164 491 l 1
164 246 m 1
 164 109 l 1
 287 109 l 1
 338 125 l 1
 350 150 l 1
 350 204 l 1
 338 229 l 1
 287 246 l 1
 164 246 l 1
EndSplineSet
EndChar

StartChar: C
Encoding: 67 67 27
Width: 516
VWidth: 0
Flags: W
HStem: 0 109<231 310> 491 109<231 310>
VStem: 34 107<225 376.7>
LayerCount: 2
Back
Fore
SplineSet
481 148 m 1
 448 86 l 1
 399 37 l 1
 338 4 l 1
 320 0 l 1
 221 0 l 1
 203 4 l 1
 143 37 l 1
 93 86 l 1
 61 146 l 1
 34 225 l 1
 32 361 l 1
 59 448 l 1
 86 503 l 1
 143 563 l 1
 203 596 l 1
 221 600 l 1
 320 600 l 1
 338 596 l 1
 399 563 l 1
 448 514 l 1
 480 454 l 1
 484 438 l 1
 481 419 l 1
 472 405 l 1
 461 398 l 1
 446 393 l 1
 418 393 l 1
 403 396 l 1
 390 404 l 1
 380 416 l 1
 359 459 l 1
 344 474 l 1
 310 491 l 1
 231 491 l 1
 201 476 l 1
 161 417 l 1
 141 355 l 1
 141 245 l 1
 161 183 l 1
 201 124 l 1
 231 109 l 1
 310 109 l 1
 344 126 l 1
 359 141 l 1
 380 184 l 1
 390 196 l 1
 403 204 l 1
 418 207 l 1
 446 207 l 1
 459 204 l 1
 472 195 l 1
 482 178 l 1
 484 162 l 1
 481 148 l 1
EndSplineSet
EndChar

StartChar: D
Encoding: 68 68 28
Width: 516
VWidth: 0
Flags: W
HStem: 0 109<164 284.368> 491 109<164 284.368>
VStem: 56 108<109 491> 375 109<223.667 376.333>
LayerCount: 2
Back
Fore
SplineSet
56 558 m 1
 59 574 l 1
 68 588 l 1
 81 597 l 1
 98 600 l 1
 270 600 l 1
 357 573 l 1
 373 563 l 1
 430 503 l 1
 457 448 l 1
 481 375 l 1
 484 239 l 1
 457 152 l 1
 430 97 l 1
 373 37 l 1
 357 27 l 1
 270 0 l 1
 98 0 l 1
 81 3 l 1
 68 12 l 1
 59 26 l 1
 56 42 l 1
 56 558 l 1
164 491 m 1
 164 109 l 1
 263 109 l 1
 321 128 l 1
 333 141 l 1
 354 181 l 1
 375 245 l 1
 375 355 l 1
 354 419 l 1
 333 459 l 1
 321 472 l 1
 263 491 l 1
 164 491 l 1
EndSplineSet
EndChar

StartChar: E
Encoding: 69 69 29
Width: 467
VWidth: 0
Flags: W
HStem: 0 109<165 409> 246 108<165 286> 491 109<165 409>
VStem: 56 109<109 246 354 491>
CounterMasks: 1 e0
LayerCount: 2
Back
Fore
SplineSet
56 558 m 1
 59 574 l 1
 68 588 l 1
 82 597 l 1
 98 600 l 1
 393 600 l 1
 409 597 l 1
 423 588 l 1
 432 574 l 1
 435 533 l 1
 432 517 l 1
 423 504 l 1
 409 495 l 1
 393 491 l 1
 165 491 l 1
 165 354 l 1
 270 354 l 1
 286 351 l 1
 300 342 l 1
 309 328 l 1
 312 288 l 1
 309 272 l 1
 300 258 l 1
 286 249 l 1
 270 246 l 1
 165 246 l 1
 165 109 l 1
 393 109 l 1
 409 105 l 1
 423 96 l 1
 432 83 l 1
 435 42 l 1
 432 26 l 1
 423 12 l 1
 409 3 l 1
 393 0 l 1
 98 0 l 1
 82 3 l 1
 68 12 l 1
 59 26 l 1
 56 42 l 1
 56 558 l 1
EndSplineSet
EndChar

StartChar: F
Encoding: 70 70 30
Width: 442
VWidth: 0
Flags: W
HStem: 0 21G<82 139> 246 108<165 286> 491 109<165 409>
VStem: 56 109<26 246 354 491>
LayerCount: 2
Back
Fore
SplineSet
56 558 m 1
 59 574 l 1
 68 588 l 1
 82 597 l 1
 98 600 l 1
 393 600 l 1
 409 597 l 1
 423 588 l 1
 432 574 l 1
 435 558 l 1
 432 517 l 1
 423 504 l 1
 409 495 l 1
 393 491 l 1
 165 491 l 1
 165 354 l 1
 270 354 l 1
 286 351 l 1
 300 342 l 1
 309 328 l 1
 312 288 l 1
 309 272 l 1
 300 258 l 1
 286 249 l 1
 270 246 l 1
 165 246 l 1
 165 42 l 1
 162 26 l 1
 152 12 l 1
 139 3 l 1
 123 0 l 1
 82 3 l 1
 68 12 l 1
 62 21 l 1
 56 42 l 1
 56 558 l 1
EndSplineSet
EndChar

StartChar: G
Encoding: 71 71 31
Width: 517
VWidth: 0
Flags: W
HStem: 0 109<231 310> 197 108<304 376> 491 109<231 310>
VStem: 32 109<223.667 376.333>
LayerCount: 2
Back
Fore
SplineSet
278 263 m 1
 281 279 l 1
 290 293 l 1
 304 302 l 1
 320 305 l 1
 443 305 l 1
 459 302 l 1
 472 293 l 1
 481 279 l 1
 485 263 l 1
 485 165 l 1
 480 146 l 1
 448 86 l 1
 388 29 l 1
 338 4 l 1
 320 0 l 1
 221 0 l 1
 203 4 l 1
 143 37 l 1
 93 86 l 1
 61 146 l 1
 32 239 l 1
 32 361 l 1
 59 448 l 1
 93 514 l 1
 154 571 l 1
 203 596 l 1
 221 600 l 1
 320 600 l 1
 338 596 l 1
 388 571 l 1
 448 514 l 1
 480 454 l 1
 484 438 l 1
 481 419 l 1
 472 405 l 1
 461 398 l 1
 446 393 l 1
 418 393 l 1
 403 396 l 1
 390 404 l 1
 380 416 l 1
 359 459 l 1
 344 474 l 1
 310 491 l 1
 231 491 l 1
 197 474 l 1
 182 459 l 1
 162 419 l 1
 141 355 l 1
 141 245 l 1
 162 181 l 1
 182 141 l 1
 197 126 l 1
 231 109 l 1
 310 109 l 1
 344 126 l 1
 359 141 l 1
 376 175 l 1
 376 197 l 1
 320 197 l 1
 304 200 l 1
 290 209 l 1
 281 222 l 1
 278 263 l 1
EndSplineSet
EndChar

StartChar: H
Encoding: 72 72 32
Width: 540
VWidth: 0
Flags: W
HStem: 0 21G<82 139 401 458> 246 108<165 375> 580 20G<82 139 401 458>
VStem: 56 109<26 246 354 574> 375 109<26 246 354 574>
LayerCount: 2
Back
Fore
SplineSet
56 558 m 1
 59 574 l 1
 68 588 l 1
 82 597 l 1
 98 600 l 1
 139 597 l 1
 152 588 l 1
 161 574 l 1
 165 558 l 1
 165 354 l 1
 375 354 l 1
 375 558 l 1
 379 574 l 1
 388 588 l 1
 401 597 l 1
 417 600 l 1
 458 597 l 1
 472 588 l 1
 481 574 l 1
 484 558 l 1
 484 42 l 1
 481 26 l 1
 472 12 l 1
 458 3 l 1
 417 0 l 1
 401 3 l 1
 388 12 l 1
 379 26 l 1
 375 42 l 1
 375 246 l 1
 165 246 l 1
 165 42 l 1
 161 26 l 1
 152 12 l 1
 139 3 l 1
 123 0 l 1
 82 3 l 1
 68 12 l 1
 59 26 l 1
 56 42 l 1
 56 558 l 1
EndSplineSet
EndChar

StartChar: I
Encoding: 73 73 33
Width: 222
VWidth: 0
Flags: W
HStem: 0 21G<82 139> 580 20G<82 139>
VStem: 56 109<26 574>
LayerCount: 2
Back
Fore
SplineSet
56 558 m 1
 59 574 l 1
 65 583 l 1
 82 597 l 1
 123 600 l 1
 139 597 l 1
 152 588 l 1
 161 574 l 1
 165 558 l 1
 165 42 l 1
 161 26 l 1
 152 12 l 1
 139 3 l 1
 123 0 l 1
 82 3 l 1
 68 12 l 1
 59 26 l 1
 56 42 l 1
 56 558 l 1
EndSplineSet
EndChar

StartChar: J
Encoding: 74 74 34
Width: 419
VWidth: 0
Flags: W
HStem: 0 21G<154 240> 580 20G<279 336>
VStem: 253 109<172 574>
LayerCount: 2
Back
Fore
SplineSet
32 166 m 1
 37 184 l 1
 47 197 l 1
 58 204 l 1
 99 207 l 1
 116 203 l 1
 130 193 l 1
 139 178 l 1
 158 121 l 1
 182 109 l 1
 212 109 l 1
 236 121 l 1
 253 172 l 1
 253 558 l 1
 256 574 l 1
 266 588 l 1
 279 596 l 1
 295 600 l 1
 336 597 l 1
 350 588 l 1
 359 574 l 1
 362 558 l 1
 362 165 l 1
 335 78 l 1
 325 61 l 1
 289 29 l 1
 240 4 l 1
 222 0 l 1
 172 0 l 1
 154 4 l 1
 105 29 l 1
 69 61 l 1
 59 78 l 1
 34 152 l 1
 32 166 l 1
EndSplineSet
EndChar

StartChar: K
Encoding: 75 75 35
Width: 516
VWidth: 0
Flags: W
HStem: 0 21G<81 138 398 452> 580 20G<81 138 401 458>
VStem: 56 108<26 221 365 574>
LayerCount: 2
Back
Fore
SplineSet
56 558 m 1
 59 574 l 1
 68 588 l 1
 81 597 l 1
 98 600 l 1
 138 597 l 1
 152 588 l 1
 161 574 l 1
 164 558 l 1
 164 365 l 1
 387 588 l 1
 401 597 l 1
 442 600 l 1
 458 597 l 1
 471 588 l 1
 480 574 l 1
 484 558 l 1
 480 542 l 1
 471 528 l 1
 276 333 l 1
 475 67 l 1
 482 52 l 1
 483 36 l 1
 478 21 l 1
 467 8 l 1
 452 1 l 1
 417 0 l 1
 398 4 l 1
 383 17 l 1
 202 259 l 1
 164 221 l 1
 164 42 l 1
 161 26 l 1
 152 12 l 1
 138 3 l 1
 122 0 l 1
 81 3 l 1
 68 12 l 1
 59 26 l 1
 56 42 l 1
 56 558 l 1
EndSplineSet
EndChar

StartChar: L
Encoding: 76 76 36
Width: 418
VWidth: 0
Flags: W
HStem: 0 109<165 409> 580 20G<82 139>
VStem: 56 109<109 574>
LayerCount: 2
Back
Fore
SplineSet
56 558 m 1
 59 574 l 1
 68 588 l 1
 82 597 l 1
 98 600 l 1
 139 597 l 1
 152 588 l 1
 162 574 l 1
 165 558 l 1
 165 109 l 1
 393 109 l 1
 409 105 l 1
 423 96 l 1
 432 83 l 1
 435 42 l 1
 432 26 l 1
 423 12 l 1
 409 3 l 1
 393 0 l 1
 98 0 l 1
 82 3 l 1
 68 12 l 1
 59 26 l 1
 56 42 l 1
 56 558 l 1
EndSplineSet
EndChar

StartChar: M
Encoding: 77 77 37
Width: 591
VWidth: 0
Flags: W
HStem: 0 21G<82 139 280 312 451 508> 580 20G<81 115 475 508>
VStem: 56 109<26 234> 425 109<26 234>
LayerCount: 2
Back
Fore
SplineSet
56 42 m 1
 56 558 l 1
 59 573 l 1
 68 587 l 1
 81 596 l 1
 98 600 l 1
 115 597 l 1
 127 588 l 1
 137 575 l 1
 295 219 l 1
 453 575 l 1
 463 588 l 1
 475 597 l 1
 492 600 l 1
 508 597 l 1
 521 588 l 1
 530 574 l 1
 534 558 l 1
 534 42 l 1
 530 26 l 1
 521 12 l 1
 508 3 l 1
 467 0 l 1
 451 3 l 1
 437 12 l 1
 428 26 l 1
 425 42 l 1
 425 234 l 1
 333 25 l 1
 324 12 l 1
 312 4 l 1
 296 0 l 1
 280 3 l 1
 266 12 l 1
 257 25 l 1
 165 234 l 1
 165 42 l 1
 162 26 l 1
 153 12 l 1
 139 3 l 1
 98 0 l 1
 82 3 l 1
 69 12 l 1
 60 26 l 1
 56 42 l 1
EndSplineSet
EndChar

StartChar: N
Encoding: 78 78 38
Width: 540
VWidth: 0
Flags: W
HStem: 1 21G<82 139 412 467> 579 20G<73 114 401 458>
VStem: 56 109<26 354> 375 109<246 574>
LayerCount: 2
Back
Fore
SplineSet
56 42 m 1
 56 558 l 1
 62 580 l 1
 73 592 l 1
 88 599 l 1
 114 597 l 1
 128 588 l 1
 375 246 l 1
 375 558 l 1
 379 574 l 1
 388 588 l 1
 401 597 l 1
 417 600 l 1
 458 597 l 1
 472 588 l 1
 481 574 l 1
 484 558 l 1
 484 42 l 1
 478 20 l 1
 467 8 l 1
 452 1 l 1
 435 1 l 1
 412 12 l 1
 165 354 l 1
 165 42 l 1
 161 26 l 1
 152 12 l 1
 139 3 l 1
 98 0 l 1
 82 3 l 1
 68 12 l 1
 59 26 l 1
 56 42 l 1
EndSplineSet
EndChar

StartChar: O
Encoding: 79 79 39
Width: 541
VWidth: 0
Flags: W
HStem: 0 109<230.176 309.824> 491 109<230.176 309.824>
VStem: 34 106<245 355> 400 109<245 355>
LayerCount: 2
Back
Fore
SplineSet
153 571 m 1
 205 597 l 1
 218 600 l 1
 319 600 l 1
 338 596 l 1
 387 571 l 1
 447 514 l 1
 455 503 l 1
 482 448 l 1
 506 375 l 1
 509 239 l 1
 480 146 l 1
 447 86 l 1
 398 37 l 1
 338 4 l 1
 319 0 l 1
 221 0 l 1
 202 4 l 1
 142 37 l 1
 85 97 l 1
 58 152 l 1
 34 225 l 1
 31 361 l 1
 58 448 l 1
 93 514 l 1
 153 571 l 1
252 491 m 1
 199 474 l 1
 161 417 l 1
 140 355 l 1
 140 245 l 1
 161 183 l 1
 199 126 l 1
 252 109 l 1
 288 109 l 1
 341 126 l 1
 379 183 l 1
 400 245 l 1
 400 355 l 1
 379 417 l 1
 341 474 l 1
 288 491 l 1
 252 491 l 1
EndSplineSet
EndChar

StartChar: P
Encoding: 80 80 40
Width: 491
VWidth: 0
Flags: W
HStem: 0 21G<81 138> 246 108<164 309> 491 109<164 309>
VStem: 56 108<26 246 354 491> 350 109<396 450>
LayerCount: 2
Back
Fore
SplineSet
56 558 m 1
 59 574 l 1
 68 588 l 1
 81 597 l 1
 98 600 l 1
 319 600 l 1
 337 596 l 1
 387 571 l 1
 422 539 l 1
 455 478 l 1
 459 460 l 1
 459 386 l 1
 455 367 l 1
 430 318 l 1
 398 283 l 1
 337 250 l 1
 319 246 l 1
 164 246 l 1
 164 42 l 1
 161 26 l 1
 152 12 l 1
 138 3 l 1
 122 0 l 1
 81 3 l 1
 68 12 l 1
 59 26 l 1
 56 42 l 1
 56 558 l 1
164 491 m 1
 164 354 l 1
 309 354 l 1
 337 368 l 1
 350 396 l 1
 350 450 l 1
 337 478 l 1
 309 491 l 1
 164 491 l 1
EndSplineSet
EndChar

StartChar: Q
Encoding: 81 81 41
Width: 541
VWidth: 0
Flags: W
HStem: 0 21G<202 344> 491 109<230.176 309.824>
VStem: 31 109<245 355> 400 109<245 355>
LayerCount: 2
Back
Fore
SplineSet
153 571 m 1
 205 597 l 1
 218 600 l 1
 319 600 l 1
 338 596 l 1
 398 563 l 1
 447 514 l 1
 480 454 l 1
 509 361 l 1
 509 239 l 1
 480 146 l 1
 455 97 l 1
 428 67 l 1
 472 23 l 1
 481 9 l 1
 484 -7 l 1
 481 -23 l 1
 472 -37 l 1
 458 -46 l 1
 417 -49 l 1
 401 -46 l 1
 388 -37 l 1
 344 7 l 1
 319 0 l 1
 221 0 l 1
 202 4 l 1
 142 37 l 1
 93 86 l 1
 60 146 l 1
 31 239 l 1
 34 375 l 1
 58 448 l 1
 85 503 l 1
 93 514 l 1
 153 571 l 1
252 491 m 1
 199 474 l 1
 161 417 l 1
 140 355 l 1
 140 245 l 1
 161 183 l 1
 199 126 l 1
 254 109 l 1
 256 132 l 1
 265 145 l 1
 278 155 l 1
 319 158 l 1
 335 155 l 1
 352 142 l 1
 379 183 l 1
 400 245 l 1
 400 355 l 1
 379 417 l 1
 341 474 l 1
 288 491 l 1
 252 491 l 1
EndSplineSet
EndChar

StartChar: R
Encoding: 82 82 42
Width: 491
VWidth: 0
Flags: W
HStem: 0 21G<81 138 378 439> 246 108<164 221> 491 109<164 309.312>
VStem: 56 108<26 246 354 491> 350 109<396 450>
LayerCount: 2
Back
Fore
SplineSet
56 558 m 1
 59 574 l 1
 68 588 l 1
 81 597 l 1
 98 600 l 1
 294 600 l 1
 381 573 l 1
 398 563 l 1
 430 528 l 1
 455 478 l 1
 459 460 l 1
 459 386 l 1
 455 367 l 1
 430 318 l 1
 398 283 l 1
 381 272 l 1
 337 258 l 1
 456 58 l 1
 459 42 l 1
 456 26 l 1
 447 12 l 1
 439 6 l 1
 423 0 l 1
 392 0 l 1
 378 2 l 1
 366 10 l 1
 356 20 l 1
 221 246 l 1
 164 246 l 1
 164 42 l 1
 161 26 l 1
 152 12 l 1
 138 3 l 1
 122 0 l 1
 81 3 l 1
 68 12 l 1
 59 26 l 1
 56 42 l 1
 56 558 l 1
164 491 m 1
 164 354 l 1
 287 354 l 1
 338 371 l 1
 350 396 l 1
 350 450 l 1
 338 475 l 1
 287 491 l 1
 164 491 l 1
EndSplineSet
EndChar

StartChar: S
Encoding: 83 83 43
Width: 492
VWidth: 0
Flags: W
HStem: 0 109<207 309.368> 491 109<182.632 285>
VStem: 351 109<133 180>
LayerCount: 2
Back
Fore
SplineSet
32 116 m 1
 35 132 l 1
 44 145 l 1
 58 155 l 1
 74 158 l 1
 123 158 l 1
 139 155 l 1
 153 145 l 1
 173 126 l 1
 207 109 l 1
 288 109 l 1
 346 128 l 1
 351 133 l 1
 351 180 l 1
 334 214 l 1
 319 229 l 1
 278 249 l 1
 157 298 l 1
 104 324 l 1
 69 356 l 1
 36 416 l 1
 32 435 l 1
 32 484 l 1
 35 500 l 1
 44 514 l 1
 93 563 l 1
 110 573 l 1
 197 600 l 1
 308 598 l 1
 382 573 l 1
 399 563 l 1
 448 514 l 1
 457 500 l 1
 460 484 l 1
 457 468 l 1
 448 455 l 1
 434 445 l 1
 418 442 l 1
 369 442 l 1
 353 445 l 1
 339 455 l 1
 319 474 l 1
 285 491 l 1
 204 491 l 1
 146 472 l 1
 141 467 l 1
 141 445 l 1
 154 417 l 1
 190 400 l 1
 311 351 l 1
 363 325 l 1
 423 268 l 1
 456 208 l 1
 460 189 l 1
 460 116 l 1
 457 100 l 1
 448 86 l 1
 399 37 l 1
 382 27 l 1
 295 0 l 1
 197 0 l 1
 110 27 l 1
 93 37 l 1
 44 86 l 1
 35 100 l 1
 32 116 l 1
EndSplineSet
EndChar

StartChar: T
Encoding: 84 84 44
Width: 417
VWidth: 0
Flags: W
HStem: 0 21G<180 237> 491 109<32 154 263 384>
VStem: 154 109<26 491>
LayerCount: 2
Back
Fore
SplineSet
7 558 m 1
 10 574 l 1
 19 588 l 1
 32 597 l 1
 49 600 l 1
 368 600 l 1
 384 597 l 1
 398 588 l 1
 407 574 l 1
 410 533 l 1
 407 517 l 1
 398 504 l 1
 384 495 l 1
 368 491 l 1
 263 491 l 1
 263 42 l 1
 259 26 l 1
 250 12 l 1
 237 3 l 1
 196 0 l 1
 180 3 l 1
 166 12 l 1
 157 26 l 1
 154 42 l 1
 154 491 l 1
 49 491 l 1
 32 495 l 1
 19 504 l 1
 10 517 l 1
 7 558 l 1
EndSplineSet
EndChar

StartChar: U
Encoding: 85 85 45
Width: 540
VWidth: 0
Flags: W
HStem: 2 107<230.632 308> 580 20G<82 139 401 458>
VStem: 56 109<174.632 574> 375 109<174.632 574>
LayerCount: 2
Back
Fore
SplineSet
56 558 m 1
 59 574 l 1
 68 588 l 1
 82 597 l 1
 98 600 l 1
 139 597 l 1
 152 588 l 1
 161 574 l 1
 165 558 l 1
 165 196 l 1
 184 138 l 1
 194 128 l 1
 252 109 l 1
 288 109 l 1
 346 128 l 1
 356 138 l 1
 375 196 l 1
 375 558 l 1
 379 574 l 1
 388 588 l 1
 401 597 l 1
 442 600 l 1
 458 597 l 1
 472 588 l 1
 481 574 l 1
 484 558 l 1
 484 189 l 1
 457 102 l 1
 447 86 l 1
 398 37 l 1
 382 27 l 1
 308 2 l 1
 245 0 l 1
 158 27 l 1
 142 37 l 1
 93 86 l 1
 83 102 l 1
 56 189 l 1
 56 558 l 1
EndSplineSet
EndChar

StartChar: V
Encoding: 86 86 46
Width: 492
VWidth: 0
Flags: W
HStem: 0 21G<230 262> 580 20G<33 89 401 458>
LayerCount: 2
Back
Fore
SplineSet
7 559 m 1
 10 574 l 1
 19 588 l 1
 33 597 l 1
 73 600 l 1
 89 597 l 1
 103 587 l 1
 112 573 l 1
 245 232 l 1
 378 573 l 1
 387 587 l 1
 401 597 l 1
 442 600 l 1
 458 597 l 1
 470 589 l 1
 480 575 l 1
 484 559 l 1
 481 543 l 1
 284 27 l 1
 276 13 l 1
 262 4 l 1
 246 0 l 1
 230 3 l 1
 216 11 l 1
 207 25 l 1
 9 543 l 1
 7 559 l 1
EndSplineSet
EndChar

StartChar: W
Encoding: 87 87 47
Width: 638
VWidth: 0
Flags: W
HStem: 0 21G<185 222 416 453> 580 20G<37 91 308 340 547 601>
LayerCount: 2
Back
Fore
SplineSet
7 560 m 1
 10 574 l 1
 19 588 l 1
 37 598 l 1
 73 600 l 1
 91 596 l 1
 105 585 l 1
 114 569 l 1
 196 273 l 1
 282 579 l 1
 293 591 l 1
 308 598 l 1
 324 600 l 1
 340 595 l 1
 352 584 l 1
 359 569 l 1
 442 273 l 1
 524 569 l 1
 533 585 l 1
 547 596 l 1
 565 600 l 1
 601 598 l 1
 619 588 l 1
 628 574 l 1
 631 563 l 1
 630 546 l 1
 482 30 l 1
 468 9 l 1
 453 2 l 1
 437 0 l 1
 416 9 l 1
 405 22 l 1
 319 327 l 1
 233 22 l 1
 222 9 l 1
 201 0 l 1
 185 2 l 1
 163 16 l 1
 156 30 l 1
 8 546 l 1
 7 560 l 1
EndSplineSet
EndChar

StartChar: X
Encoding: 88 88 48
Width: 492
VWidth: 0
Flags: W
HStem: 0 21G<67 113 379 425> 580 20G<58 113 379 425>
LayerCount: 2
Back
Fore
SplineSet
33 555 m 1
 33 568 l 1
 40 583 l 1
 58 597 l 1
 99 600 l 1
 113 598 l 1
 125 591 l 1
 134 580 l 1
 246 400 l 1
 358 580 l 1
 367 591 l 1
 379 598 l 1
 393 600 l 1
 425 599 l 1
 440 594 l 1
 452 583 l 1
 460 558 l 1
 457 542 l 1
 308 300 l 1
 457 58 l 1
 460 42 l 1
 457 26 l 1
 440 6 l 1
 425 1 l 1
 393 0 l 1
 379 2 l 1
 367 9 l 1
 358 20 l 1
 246 200 l 1
 134 20 l 1
 125 9 l 1
 113 2 l 1
 99 0 l 1
 67 1 l 1
 52 6 l 1
 40 17 l 1
 32 42 l 1
 35 58 l 1
 184 300 l 1
 38 536 l 1
 33 555 l 1
EndSplineSet
EndChar

StartChar: Y
Encoding: 89 89 49
Width: 467
VWidth: 0
Flags: W
HStem: 0 21G<204 261> 580 20G<32 92 373 426>
VStem: 178 109<26 299>
LayerCount: 2
Back
Fore
SplineSet
7 562 m 1
 13 581 l 1
 32 597 l 1
 73 600 l 1
 92 595 l 1
 107 582 l 1
 232 403 l 1
 358 582 l 1
 373 595 l 1
 392 600 l 1
 426 599 l 1
 441 592 l 1
 455 574 l 1
 458 549 l 1
 451 534 l 1
 287 299 l 1
 287 42 l 1
 283 26 l 1
 274 12 l 1
 261 3 l 1
 220 0 l 1
 204 3 l 1
 190 12 l 1
 181 26 l 1
 178 42 l 1
 178 299 l 1
 14 534 l 1
 7 549 l 1
 7 562 l 1
EndSplineSet
EndChar

StartChar: Z
Encoding: 90 90 50
Width: 492
VWidth: 0
Flags: W
HStem: 0 109<189 434> 491 109<58 303>
LayerCount: 2
Back
Fore
SplineSet
32 558 m 1
 35 574 l 1
 44 588 l 1
 58 597 l 1
 74 600 l 1
 418 600 l 1
 440 594 l 1
 452 583 l 1
 460 558 l 1
 454 536 l 1
 189 109 l 1
 418 109 l 1
 434 105 l 1
 448 96 l 1
 457 83 l 1
 460 67 l 1
 457 26 l 1
 448 12 l 1
 434 3 l 1
 418 0 l 1
 74 0 l 1
 58 3 l 1
 40 17 l 1
 32 42 l 1
 38 64 l 1
 303 491 l 1
 74 491 l 1
 58 495 l 1
 44 504 l 1
 35 517 l 1
 32 558 l 1
EndSplineSet
EndChar

StartChar: a
Encoding: 97 97 51
Width: 492
VWidth: 0
Flags: W
HStem: 0 109<207 261> 319 109<207 261>
VStem: 34 107<176 252> 327 108<142 286>
LayerCount: 2
Back
Fore
SplineSet
369 428 m 1
 410 425 l 1
 423 416 l 1
 432 402 l 1
 435 386 l 1
 435 42 l 1
 432 26 l 1
 423 12 l 1
 410 3 l 1
 393 0 l 1
 353 3 l 1
 339 12 l 1
 331 25 l 1
 289 4 l 1
 271 0 l 1
 197 0 l 1
 178 4 l 1
 129 29 l 1
 69 86 l 1
 59 102 l 1
 34 176 l 1
 32 239 l 1
 34 252 l 1
 59 326 l 1
 69 342 l 1
 118 391 l 1
 178 424 l 1
 197 428 l 1
 271 428 l 1
 289 424 l 1
 331 403 l 1
 339 416 l 1
 353 425 l 1
 369 428 l 1
327 286 m 1
 261 319 l 1
 207 319 l 1
 173 302 l 1
 160 290 l 1
 141 232 l 1
 141 196 l 1
 160 138 l 1
 173 126 l 1
 207 109 l 1
 261 109 l 1
 327 142 l 1
 327 286 l 1
EndSplineSet
EndChar

StartChar: b
Encoding: 98 98 52
Width: 491
VWidth: 0
Flags: W
HStem: 0 109<230 284> 319 109<230 284> 580 20G<81 138>
VStem: 56 108<142 286 405 574> 350 109<176 252>
LayerCount: 2
Back
Fore
SplineSet
56 558 m 1
 59 574 l 1
 63 581 l 1
 68 588 l 1
 81 597 l 1
 122 600 l 1
 138 597 l 1
 152 588 l 1
 161 574 l 1
 164 558 l 1
 164 405 l 1
 202 424 l 1
 220 428 l 1
 294 428 l 1
 313 424 l 1
 373 391 l 1
 422 342 l 1
 432 326 l 1
 457 252 l 1
 459 189 l 1
 457 176 l 1
 432 102 l 1
 422 86 l 1
 362 29 l 1
 313 4 l 1
 294 0 l 1
 220 0 l 1
 202 4 l 1
 160 25 l 1
 152 12 l 1
 138 3 l 1
 98 0 l 1
 81 3 l 1
 68 12 l 1
 59 26 l 1
 56 42 l 1
 56 558 l 1
164 142 m 1
 230 109 l 1
 284 109 l 1
 318 126 l 1
 331 138 l 1
 350 196 l 1
 350 232 l 1
 331 290 l 1
 318 302 l 1
 284 319 l 1
 230 319 l 1
 164 286 l 1
 164 142 l 1
EndSplineSet
EndChar

StartChar: c
Encoding: 99 99 53
Width: 441
VWidth: 0
Flags: W
HStem: 0 109<205 259> 319 109<205 259>
VStem: 33 106<174.632 253.368>
LayerCount: 2
Back
Fore
SplineSet
402 335 m 1
 406 328 l 1
 409 312 l 1
 406 296 l 1
 397 283 l 1
 373 258 l 1
 359 249 l 1
 344 246 l 1
 328 248 l 1
 315 256 l 1
 305 269 l 1
 287 306 l 1
 259 319 l 1
 205 319 l 1
 171 302 l 1
 158 290 l 1
 139 232 l 1
 139 196 l 1
 158 138 l 1
 171 126 l 1
 205 109 l 1
 259 109 l 1
 287 122 l 1
 305 159 l 1
 315 172 l 1
 328 180 l 1
 344 182 l 1
 359 179 l 1
 373 170 l 1
 397 145 l 1
 406 132 l 1
 409 116 l 1
 406 100 l 1
 397 86 l 1
 348 37 l 1
 288 4 l 1
 269 0 l 1
 195 0 l 1
 177 4 l 1
 128 29 l 1
 67 86 l 1
 57 102 l 1
 33 176 l 1
 31 239 l 1
 57 326 l 1
 67 342 l 1
 117 391 l 1
 177 424 l 1
 195 428 l 1
 269 428 l 1
 288 424 l 1
 337 399 l 1
 348 391 l 1
 402 335 l 1
EndSplineSet
EndChar

StartChar: d
Encoding: 100 100 54
Width: 492
VWidth: 0
Flags: W
HStem: 0 109<207 261> 319 109<207 261> 580 20G<353 410>
VStem: 34 107<176 252> 327 108<142 286 405 574>
LayerCount: 2
Back
Fore
SplineSet
369 600 m 1
 410 597 l 1
 423 588 l 1
 432 574 l 1
 435 558 l 1
 435 42 l 1
 432 26 l 1
 423 12 l 1
 410 3 l 1
 393 0 l 1
 353 3 l 1
 339 12 l 1
 331 25 l 1
 289 4 l 1
 271 0 l 1
 197 0 l 1
 178 4 l 1
 118 37 l 1
 69 86 l 1
 59 102 l 1
 34 176 l 1
 32 239 l 1
 34 252 l 1
 59 326 l 1
 69 342 l 1
 129 399 l 1
 178 424 l 1
 197 428 l 1
 271 428 l 1
 289 424 l 1
 327 405 l 1
 327 558 l 1
 330 574 l 1
 339 588 l 1
 353 597 l 1
 369 600 l 1
327 286 m 1
 261 319 l 1
 207 319 l 1
 173 302 l 1
 160 290 l 1
 141 232 l 1
 141 196 l 1
 160 138 l 1
 173 126 l 1
 207 109 l 1
 261 109 l 1
 327 142 l 1
 327 286 l 1
EndSplineSet
EndChar

StartChar: e
Encoding: 101 101 55
Width: 441
VWidth: 0
Flags: W
HStem: 0 109<205 259> 172 109<155 299> 319 109<205 259>
LayerCount: 2
Back
Fore
SplineSet
397 86 m 1
 337 29 l 1
 288 4 l 1
 269 0 l 1
 195 0 l 1
 177 4 l 1
 117 37 l 1
 67 86 l 1
 57 102 l 1
 31 189 l 1
 33 252 l 1
 57 326 l 1
 67 342 l 1
 128 399 l 1
 177 424 l 1
 195 428 l 1
 269 428 l 1
 288 424 l 1
 348 391 l 1
 380 356 l 1
 405 306 l 1
 409 288 l 1
 409 214 l 1
 406 198 l 1
 397 184 l 1
 384 175 l 1
 369 172 l 1
 397 145 l 1
 406 132 l 1
 409 116 l 1
 406 100 l 1
 397 86 l 1
155 281 m 1
 299 281 l 1
 287 306 l 1
 259 319 l 1
 205 319 l 1
 171 302 l 1
 158 290 l 1
 155 281 l 1
316 172 m 1
 147 172 l 1
 158 138 l 1
 171 126 l 1
 205 109 l 1
 259 109 l 1
 287 122 l 1
 305 159 l 1
 316 172 l 1
EndSplineSet
EndChar

StartChar: f
Encoding: 102 102 56
Width: 345
VWidth: 0
Flags: W
HStem: 0 21G<131 188> 319 109<57 105 214 261> 491 109<231 286>
VStem: 105 109<26 319 428 453>
LayerCount: 2
Back
Fore
SplineSet
31 386 m 1
 34 402 l 1
 44 416 l 1
 57 425 l 1
 73 428 l 1
 105 428 l 1
 107 473 l 1
 132 547 l 1
 140 561 l 1
 153 571 l 1
 202 596 l 1
 221 600 l 1
 270 600 l 1
 286 597 l 1
 300 588 l 1
 309 574 l 1
 312 558 l 1
 309 517 l 1
 300 504 l 1
 286 495 l 1
 270 491 l 1
 231 491 l 1
 226 489 l 1
 214 453 l 1
 214 428 l 1
 245 428 l 1
 261 425 l 1
 275 416 l 1
 284 402 l 1
 287 361 l 1
 284 345 l 1
 275 332 l 1
 261 323 l 1
 245 319 l 1
 214 319 l 1
 214 42 l 1
 210 26 l 1
 201 12 l 1
 188 3 l 1
 147 0 l 1
 131 3 l 1
 117 12 l 1
 108 26 l 1
 105 42 l 1
 105 319 l 1
 73 319 l 1
 57 323 l 1
 44 332 l 1
 34 345 l 1
 31 386 l 1
EndSplineSet
EndChar

StartChar: g
Encoding: 103 103 57
Width: 492
VWidth: 0
Flags: W
HStem: -172 21G<178 289> 0 109<207 261> 319 109<207 261>
VStem: 34 107<176 253.368> 327 108<142 286>
LayerCount: 2
Back
Fore
SplineSet
57 -56 m 1
 60 -40 l 1
 69 -27 l 1
 82 -17 l 1
 99 -14 l 1
 148 -14 l 1
 164 -17 l 1
 177 -27 l 1
 197 -46 l 1
 231 -63 l 1
 261 -63 l 1
 295 -46 l 1
 308 -34 l 1
 326 23 l 1
 289 4 l 1
 271 0 l 1
 197 0 l 1
 178 4 l 1
 118 37 l 1
 69 86 l 1
 59 102 l 1
 34 176 l 1
 32 239 l 1
 59 326 l 1
 69 342 l 1
 129 399 l 1
 178 424 l 1
 197 428 l 1
 271 428 l 1
 289 424 l 1
 331 403 l 1
 339 416 l 1
 353 425 l 1
 369 428 l 1
 410 425 l 1
 423 416 l 1
 432 402 l 1
 435 386 l 1
 435 17 l 1
 409 -70 l 1
 399 -86 l 1
 349 -135 l 1
 289 -168 l 1
 271 -172 l 1
 197 -172 l 1
 178 -168 l 1
 118 -135 l 1
 69 -86 l 1
 60 -72 l 1
 57 -56 l 1
327 142 m 1
 327 286 l 1
 261 319 l 1
 207 319 l 1
 173 302 l 1
 160 290 l 1
 141 232 l 1
 141 196 l 1
 160 138 l 1
 173 126 l 1
 207 109 l 1
 261 109 l 1
 327 142 l 1
EndSplineSet
EndChar

StartChar: h
Encoding: 104 104 58
Width: 491
VWidth: 0
Flags: W
HStem: 0 21G<81 138 352 409> 408 20G<226 337> 580 20G<81 138>
VStem: 56 108<26 265 389 574> 326 108<26 278>
LayerCount: 2
Back
Fore
SplineSet
56 558 m 1
 59 574 l 1
 68 588 l 1
 81 597 l 1
 98 600 l 1
 138 597 l 1
 152 588 l 1
 161 574 l 1
 164 558 l 1
 164 389 l 1
 177 399 l 1
 226 424 l 1
 245 428 l 1
 319 428 l 1
 337 424 l 1
 387 399 l 1
 400 389 l 1
 408 375 l 1
 434 288 l 1
 434 42 l 1
 431 26 l 1
 422 12 l 1
 409 3 l 1
 368 0 l 1
 352 3 l 1
 338 12 l 1
 329 26 l 1
 326 42 l 1
 326 278 l 1
 312 306 l 1
 284 319 l 1
 255 319 l 1
 217 300 l 1
 164 265 l 1
 164 42 l 1
 161 26 l 1
 152 12 l 1
 138 3 l 1
 98 0 l 1
 81 3 l 1
 68 12 l 1
 59 26 l 1
 56 42 l 1
 56 558 l 1
EndSplineSet
EndChar

StartChar: i
Encoding: 105 105 59
Width: 221
VWidth: 0
Flags: W
HStem: 0 21G<82 139> 408 20G<82 139> 580 20G<82 139>
VStem: 56 109<26 402>
LayerCount: 2
Back
Fore
SplineSet
44 563 m 1
 68 588 l 1
 82 597 l 1
 98 600 l 1
 139 597 l 1
 152 588 l 1
 177 563 l 1
 186 550 l 1
 189 509 l 1
 186 493 l 1
 177 479 l 1
 152 455 l 1
 139 445 l 1
 98 442 l 1
 82 445 l 1
 68 455 l 1
 44 479 l 1
 35 493 l 1
 31 533 l 1
 35 550 l 1
 44 563 l 1
56 386 m 1
 59 402 l 1
 68 416 l 1
 82 425 l 1
 123 428 l 1
 139 425 l 1
 152 416 l 1
 161 402 l 1
 165 386 l 1
 165 42 l 1
 161 26 l 1
 152 12 l 1
 139 3 l 1
 123 0 l 1
 82 3 l 1
 68 12 l 1
 59 26 l 1
 56 42 l 1
 56 386 l 1
EndSplineSet
EndChar

StartChar: j
Encoding: 106 106 60
Width: 221
VWidth: 0
Flags: W
HStem: -172 21G<82 139> 408 20G<82 139> 580 20G<82 139>
VStem: 56 109<-146 402>
LayerCount: 2
Back
Fore
SplineSet
44 563 m 1
 68 588 l 1
 82 597 l 1
 98 600 l 1
 139 597 l 1
 152 588 l 1
 177 563 l 1
 186 550 l 1
 189 509 l 1
 186 493 l 1
 177 479 l 1
 152 455 l 1
 139 445 l 1
 98 442 l 1
 82 445 l 1
 68 455 l 1
 44 479 l 1
 35 493 l 1
 31 533 l 1
 35 550 l 1
 44 563 l 1
56 386 m 1
 59 402 l 1
 68 416 l 1
 82 425 l 1
 123 428 l 1
 139 425 l 1
 152 416 l 1
 161 402 l 1
 165 386 l 1
 165 -130 l 1
 161 -146 l 1
 152 -160 l 1
 139 -169 l 1
 123 -172 l 1
 82 -169 l 1
 68 -160 l 1
 59 -146 l 1
 56 -130 l 1
 56 386 l 1
EndSplineSet
EndChar

StartChar: k
Encoding: 107 107 61
Width: 466
VWidth: 0
Flags: W
HStem: 0 21G<81 138 326 409> 408 20G<352 409> 580 20G<81 138>
VStem: 56 108<26 98 242 574>
LayerCount: 2
Back
Fore
SplineSet
56 558 m 1
 59 574 l 1
 68 588 l 1
 81 597 l 1
 98 600 l 1
 138 597 l 1
 152 588 l 1
 161 574 l 1
 164 558 l 1
 164 242 l 1
 338 416 l 1
 352 425 l 1
 392 428 l 1
 409 425 l 1
 422 416 l 1
 431 402 l 1
 434 386 l 1
 431 370 l 1
 422 356 l 1
 289 224 l 1
 424 70 l 1
 431 58 l 1
 434 39 l 1
 430 23 l 1
 420 10 l 1
 409 3 l 1
 392 0 l 1
 343 0 l 1
 326 4 l 1
 311 15 l 1
 205 139 l 1
 164 98 l 1
 164 42 l 1
 161 26 l 1
 152 12 l 1
 138 3 l 1
 98 0 l 1
 81 3 l 1
 68 12 l 1
 59 26 l 1
 56 42 l 1
 56 558 l 1
EndSplineSet
EndChar

StartChar: l
Encoding: 108 108 62
Width: 222
VWidth: 0
Flags: W
HStem: 0 21G<82 139> 580 20G<82 139>
VStem: 56 109<26 574>
LayerCount: 2
Back
Fore
SplineSet
56 558 m 1
 59 574 l 1
 65 583 l 1
 82 597 l 1
 123 600 l 1
 139 597 l 1
 152 588 l 1
 161 574 l 1
 165 558 l 1
 165 42 l 1
 161 26 l 1
 152 12 l 1
 139 3 l 1
 123 0 l 1
 82 3 l 1
 68 12 l 1
 59 26 l 1
 56 42 l 1
 56 558 l 1
EndSplineSet
EndChar

StartChar: m
Encoding: 109 109 63
Width: 762
VWidth: 0
Flags: W
HStem: 0 21G<82 138 352 409 622 679> 319 109<255 284 525 555>
VStem: 56 108<26 265> 326 109<26 265> 596 109<26 278>
LayerCount: 2
Back
Fore
SplineSet
56 386 m 1
 59 402 l 1
 68 416 l 1
 82 425 l 1
 98 428 l 1
 138 425 l 1
 152 416 l 1
 161 402 l 1
 164 389 l 1
 177 399 l 1
 226 424 l 1
 245 428 l 1
 319 428 l 1
 338 424 l 1
 387 399 l 1
 400 389 l 1
 411 365 l 1
 448 399 l 1
 497 424 l 1
 515 428 l 1
 589 428 l 1
 608 424 l 1
 657 399 l 1
 670 389 l 1
 678 375 l 1
 705 288 l 1
 705 42 l 1
 702 26 l 1
 693 12 l 1
 679 3 l 1
 638 0 l 1
 622 3 l 1
 609 12 l 1
 599 26 l 1
 596 42 l 1
 596 278 l 1
 582 306 l 1
 555 319 l 1
 525 319 l 1
 487 300 l 1
 435 265 l 1
 435 42 l 1
 431 26 l 1
 422 12 l 1
 409 3 l 1
 368 0 l 1
 352 3 l 1
 338 12 l 1
 329 26 l 1
 326 42 l 1
 326 278 l 1
 312 306 l 1
 284 319 l 1
 255 319 l 1
 217 300 l 1
 164 265 l 1
 164 42 l 1
 161 26 l 1
 152 12 l 1
 138 3 l 1
 98 0 l 1
 82 3 l 1
 68 12 l 1
 59 26 l 1
 56 42 l 1
 56 386 l 1
EndSplineSet
EndChar

StartChar: n
Encoding: 110 110 64
Width: 491
VWidth: 0
Flags: W
HStem: 0 21G<81 138 352 409> 408 20G<81 138 226 337>
VStem: 56 108<26 265> 326 108<26 278>
LayerCount: 2
Back
Fore
SplineSet
56 386 m 1
 59 402 l 1
 68 416 l 1
 81 425 l 1
 98 428 l 1
 138 425 l 1
 152 416 l 1
 161 402 l 1
 164 389 l 1
 177 399 l 1
 226 424 l 1
 245 428 l 1
 319 428 l 1
 337 424 l 1
 387 399 l 1
 400 389 l 1
 408 375 l 1
 434 288 l 1
 434 42 l 1
 431 26 l 1
 422 12 l 1
 409 3 l 1
 368 0 l 1
 352 3 l 1
 338 12 l 1
 329 26 l 1
 326 42 l 1
 326 278 l 1
 312 306 l 1
 284 319 l 1
 255 319 l 1
 217 300 l 1
 164 265 l 1
 164 42 l 1
 161 26 l 1
 152 12 l 1
 138 3 l 1
 122 0 l 1
 81 3 l 1
 68 12 l 1
 59 26 l 1
 56 42 l 1
 56 386 l 1
EndSplineSet
EndChar

StartChar: o
Encoding: 111 111 65
Width: 466
VWidth: 0
Flags: W
HStem: 0 109<205 259> 319 109<205 259>
VStem: 33 106<174.632 252> 325 109<174.632 252>
LayerCount: 2
Back
Fore
SplineSet
128 399 m 1
 179 425 l 1
 192 428 l 1
 269 428 l 1
 288 424 l 1
 348 391 l 1
 397 342 l 1
 407 326 l 1
 432 252 l 1
 434 189 l 1
 407 102 l 1
 397 86 l 1
 348 37 l 1
 288 4 l 1
 269 0 l 1
 195 0 l 1
 177 4 l 1
 117 37 l 1
 67 86 l 1
 57 102 l 1
 33 176 l 1
 31 239 l 1
 33 252 l 1
 57 326 l 1
 67 342 l 1
 128 399 l 1
205 319 m 1
 171 302 l 1
 158 290 l 1
 139 232 l 1
 139 196 l 1
 158 138 l 1
 171 126 l 1
 205 109 l 1
 259 109 l 1
 293 126 l 1
 306 138 l 1
 325 196 l 1
 325 232 l 1
 306 290 l 1
 293 302 l 1
 259 319 l 1
 205 319 l 1
EndSplineSet
EndChar

StartChar: p
Encoding: 112 112 66
Width: 491
VWidth: 0
Flags: W
HStem: -172 21G<81 138> 0 109<230 284> 319 109<230 284>
VStem: 56 108<-146 23 142 286> 350 107<176 253.368>
LayerCount: 2
Back
Fore
SplineSet
56 386 m 1
 59 402 l 1
 68 416 l 1
 81 425 l 1
 98 428 l 1
 138 425 l 1
 152 416 l 1
 160 403 l 1
 202 424 l 1
 220 428 l 1
 294 428 l 1
 313 424 l 1
 373 391 l 1
 422 342 l 1
 432 326 l 1
 459 239 l 1
 457 176 l 1
 432 102 l 1
 422 86 l 1
 373 37 l 1
 313 4 l 1
 294 0 l 1
 220 0 l 1
 202 4 l 1
 164 23 l 1
 164 -130 l 1
 161 -146 l 1
 152 -160 l 1
 138 -169 l 1
 122 -172 l 1
 81 -169 l 1
 68 -160 l 1
 59 -146 l 1
 56 -130 l 1
 56 386 l 1
164 142 m 1
 230 109 l 1
 284 109 l 1
 318 126 l 1
 331 138 l 1
 350 196 l 1
 350 232 l 1
 331 290 l 1
 318 302 l 1
 284 319 l 1
 230 319 l 1
 164 286 l 1
 164 142 l 1
EndSplineSet
EndChar

StartChar: q
Encoding: 113 113 67
Width: 492
VWidth: 0
Flags: W
HStem: -172 21G<353 410> 0 109<207 261> 319 109<207 261>
VStem: 32 109<174.632 252> 327 108<-146 23 142 286>
LayerCount: 2
Back
Fore
SplineSet
369 428 m 1
 410 425 l 1
 423 416 l 1
 432 402 l 1
 435 386 l 1
 435 -130 l 1
 432 -146 l 1
 423 -160 l 1
 410 -169 l 1
 393 -172 l 1
 353 -169 l 1
 339 -160 l 1
 330 -146 l 1
 327 -130 l 1
 327 23 l 1
 289 4 l 1
 271 0 l 1
 197 0 l 1
 178 4 l 1
 129 29 l 1
 69 86 l 1
 59 102 l 1
 32 189 l 1
 34 252 l 1
 59 326 l 1
 69 342 l 1
 129 399 l 1
 178 424 l 1
 197 428 l 1
 271 428 l 1
 289 424 l 1
 331 403 l 1
 339 416 l 1
 353 425 l 1
 369 428 l 1
327 286 m 1
 261 319 l 1
 207 319 l 1
 173 302 l 1
 160 290 l 1
 141 232 l 1
 141 196 l 1
 160 138 l 1
 173 126 l 1
 207 109 l 1
 261 109 l 1
 327 142 l 1
 327 286 l 1
EndSplineSet
EndChar

StartChar: r
Encoding: 114 114 68
Width: 344
VWidth: 0
Flags: W
HStem: 0 21G<82 139> 319 109<256 336>
VStem: 56 109<26 229>
LayerCount: 2
Back
Fore
SplineSet
56 386 m 1
 59 402 l 1
 69 416 l 1
 82 425 l 1
 98 428 l 1
 139 425 l 1
 153 416 l 1
 162 402 l 1
 164 389 l 1
 178 399 l 1
 227 424 l 1
 246 428 l 1
 319 428 l 1
 336 425 l 1
 349 416 l 1
 358 402 l 1
 361 386 l 1
 358 345 l 1
 349 332 l 1
 336 323 l 1
 319 319 l 1
 256 319 l 1
 221 302 l 1
 182 263 l 1
 165 229 l 1
 165 42 l 1
 162 26 l 1
 148 9 l 1
 139 3 l 1
 123 0 l 1
 82 3 l 1
 69 12 l 1
 59 26 l 1
 56 42 l 1
 56 386 l 1
EndSplineSet
EndChar

StartChar: s
Encoding: 115 115 69
Width: 418
VWidth: 0
Flags: W
HStem: 0 109<179 239> 319 109<179 239>
LayerCount: 2
Back
Fore
SplineSet
32 114 m 1
 34 129 l 1
 42 143 l 1
 55 153 l 1
 71 158 l 1
 114 155 l 1
 127 147 l 1
 143 121 l 1
 179 109 l 1
 239 109 l 1
 275 121 l 1
 278 126 l 1
 272 142 l 1
 129 201 l 1
 69 233 l 1
 37 294 l 1
 32 312 l 1
 37 331 l 1
 61 380 l 1
 71 393 l 1
 85 401 l 1
 159 426 l 1
 246 428 l 1
 333 401 l 1
 347 393 l 1
 357 380 l 1
 382 331 l 1
 386 315 l 1
 384 299 l 1
 376 285 l 1
 361 273 l 1
 344 270 l 1
 305 273 l 1
 292 281 l 1
 275 307 l 1
 239 319 l 1
 179 319 l 1
 149 309 l 1
 289 252 l 1
 350 219 l 1
 382 159 l 1
 386 140 l 1
 386 116 l 1
 382 97 l 1
 357 48 l 1
 347 35 l 1
 333 27 l 1
 259 2 l 1
 172 0 l 1
 159 2 l 1
 85 27 l 1
 71 35 l 1
 61 48 l 1
 37 97 l 1
 32 114 l 1
EndSplineSet
EndChar

StartChar: t
Encoding: 116 116 70
Width: 270
VWidth: 0
Flags: W
HStem: 0 21G<107 164> 319 109<33 81 190 237> 580 20G<107 164>
VStem: 81 109<26 319 428 574>
LayerCount: 2
Back
Fore
SplineSet
7 386 m 1
 10 402 l 1
 20 416 l 1
 33 425 l 1
 49 428 l 1
 81 428 l 1
 81 558 l 1
 84 574 l 1
 93 588 l 1
 107 597 l 1
 148 600 l 1
 164 597 l 1
 177 588 l 1
 186 574 l 1
 190 558 l 1
 190 428 l 1
 221 428 l 1
 237 425 l 1
 251 416 l 1
 260 402 l 1
 263 361 l 1
 260 345 l 1
 251 332 l 1
 237 323 l 1
 221 319 l 1
 190 319 l 1
 190 42 l 1
 186 26 l 1
 177 12 l 1
 164 3 l 1
 123 0 l 1
 107 3 l 1
 93 12 l 1
 84 26 l 1
 81 42 l 1
 81 319 l 1
 49 319 l 1
 33 323 l 1
 20 332 l 1
 10 345 l 1
 7 386 l 1
EndSplineSet
EndChar

StartChar: u
Encoding: 117 117 71
Width: 491
VWidth: 0
Flags: W
HStem: 0 21G<153 264 352 409> 408 20G<81 138 352 409>
VStem: 56 108<150 402> 326 108<26 39 163 402>
LayerCount: 2
Back
Fore
SplineSet
56 386 m 1
 59 402 l 1
 68 416 l 1
 81 425 l 1
 98 428 l 1
 138 425 l 1
 152 416 l 1
 161 402 l 1
 164 386 l 1
 164 150 l 1
 178 122 l 1
 206 109 l 1
 235 109 l 1
 273 128 l 1
 326 163 l 1
 326 386 l 1
 329 402 l 1
 344 419 l 1
 352 425 l 1
 368 428 l 1
 409 425 l 1
 422 416 l 1
 431 402 l 1
 434 386 l 1
 434 42 l 1
 431 26 l 1
 422 12 l 1
 409 3 l 1
 392 0 l 1
 352 3 l 1
 338 12 l 1
 329 26 l 1
 326 39 l 1
 313 29 l 1
 264 4 l 1
 245 0 l 1
 171 0 l 1
 153 4 l 1
 103 29 l 1
 90 39 l 1
 82 53 l 1
 56 140 l 1
 56 386 l 1
EndSplineSet
EndChar

StartChar: v
Encoding: 118 118 72
Width: 393
VWidth: 0
Flags: W
HStem: 0 21G<180 213> 408 20G<32 89 303 360>
LayerCount: 2
Back
Fore
SplineSet
7 386 m 1
 10 402 l 1
 19 415 l 1
 32 425 l 1
 73 428 l 1
 89 425 l 1
 103 416 l 1
 112 402 l 1
 196 200 l 1
 280 402 l 1
 289 416 l 1
 303 425 l 1
 344 428 l 1
 360 425 l 1
 373 415 l 1
 382 402 l 1
 385 385 l 1
 382 369 l 1
 235 25 l 1
 225 12 l 1
 213 3 l 1
 197 0 l 1
 180 3 l 1
 167 12 l 1
 157 25 l 1
 10 370 l 1
 7 386 l 1
EndSplineSet
EndChar

StartChar: w
Encoding: 119 119 73
Width: 590
VWidth: 0
Flags: W
HStem: 0 21G<182 214 376 411> 408 20G<60 115 281 309 475 530>
LayerCount: 2
Back
Fore
SplineSet
32 387 m 1
 35 402 l 1
 44 416 l 1
 60 426 l 1
 98 428 l 1
 115 425 l 1
 129 415 l 1
 138 400 l 1
 197 239 l 1
 257 404 l 1
 267 417 l 1
 281 425 l 1
 293 428 l 1
 309 425 l 1
 323 417 l 1
 333 404 l 1
 393 239 l 1
 452 400 l 1
 461 415 l 1
 475 425 l 1
 492 428 l 1
 530 426 l 1
 544 417 l 1
 555 402 l 1
 558 388 l 1
 556 372 l 1
 433 28 l 1
 424 14 l 1
 411 4 l 1
 391 0 l 1
 376 4 l 1
 362 14 l 1
 354 28 l 1
 295 189 l 1
 236 28 l 1
 228 14 l 1
 214 4 l 1
 199 0 l 1
 182 3 l 1
 168 11 l 1
 157 28 l 1
 34 372 l 1
 32 387 l 1
EndSplineSet
EndChar

StartChar: x
Encoding: 120 120 74
Width: 441
VWidth: 0
Flags: W
HStem: 0 21G<56 116 324 384> 408 20G<56 116 324 384>
LayerCount: 2
Back
Fore
SplineSet
31 388 m 1
 36 407 l 1
 47 419 l 1
 56 425 l 1
 97 428 l 1
 116 424 l 1
 130 412 l 1
 220 298 l 1
 310 412 l 1
 324 424 l 1
 343 428 l 1
 367 428 l 1
 384 425 l 1
 397 416 l 1
 404 407 l 1
 409 391 l 1
 406 370 l 1
 286 214 l 1
 406 58 l 1
 409 37 l 1
 404 21 l 1
 397 12 l 1
 384 3 l 1
 367 0 l 1
 343 0 l 1
 324 4 l 1
 310 16 l 1
 220 130 l 1
 130 16 l 1
 116 4 l 1
 97 0 l 1
 73 0 l 1
 56 3 l 1
 43 12 l 1
 36 21 l 1
 31 37 l 1
 34 58 l 1
 154 214 l 1
 40 360 l 1
 32 375 l 1
 31 388 l 1
EndSplineSet
EndChar

StartChar: y
Encoding: 121 121 75
Width: 393
VWidth: 0
Flags: W
HStem: -172 21G<82 138> 408 20G<32 89 303 360>
LayerCount: 2
Back
Fore
SplineSet
7 386 m 1
 10 402 l 1
 19 415 l 1
 32 425 l 1
 73 428 l 1
 89 425 l 1
 103 416 l 1
 112 402 l 1
 196 200 l 1
 280 402 l 1
 289 416 l 1
 303 425 l 1
 344 428 l 1
 360 425 l 1
 373 416 l 1
 382 402 l 1
 385 385 l 1
 382 369 l 1
 161 -147 l 1
 152 -160 l 1
 138 -169 l 1
 98 -172 l 1
 82 -169 l 1
 68 -160 l 1
 59 -145 l 1
 56 -129 l 1
 59 -114 l 1
 139 67 l 1
 10 370 l 1
 7 386 l 1
EndSplineSet
EndChar

StartChar: z
Encoding: 122 122 76
Width: 441
VWidth: 0
Flags: W
HStem: 0 109<207 384> 319 109<56 233>
LayerCount: 2
Back
Fore
SplineSet
31 386 m 1
 34 402 l 1
 43 416 l 1
 56 425 l 1
 73 428 l 1
 367 428 l 1
 384 425 l 1
 397 416 l 1
 404 407 l 1
 409 391 l 1
 408 375 l 1
 401 360 l 1
 207 109 l 1
 367 109 l 1
 384 105 l 1
 397 96 l 1
 406 83 l 1
 409 67 l 1
 406 26 l 1
 397 12 l 1
 384 3 l 1
 367 0 l 1
 73 0 l 1
 56 3 l 1
 43 12 l 1
 34 26 l 1
 31 37 l 1
 32 53 l 1
 39 68 l 1
 233 319 l 1
 73 319 l 1
 56 323 l 1
 43 332 l 1
 34 345 l 1
 31 386 l 1
EndSplineSet
EndChar

StartChar: degree
Encoding: 176 176 77
Width: 343
VWidth: 0
Flags: W
HStem: 323 277
VStem: 31 280
LayerCount: 2
Back
Fore
SplineSet
31 486 m 1
 35 502 l 1
 60 552 l 1
 73 568 l 1
 140 600 l 1
 202 600 l 1
 263 571 l 1
 279 557 l 1
 307 502 l 1
 311 488 l 1
 311 431 l 1
 307 417 l 1
 282 367 l 1
 269 351 l 1
 214 323 l 1
 200 320 l 1
 142 320 l 1
 128 323 l 1
 79 348 l 1
 63 362 l 1
 35 417 l 1
 31 431 l 1
 31 486 l 1
171 509 m 1
 152 504 l 1
 127 479 l 1
 122 460 l 1
 127 440 l 1
 152 416 l 1
 171 411 l 1
 190 416 l 1
 215 440 l 1
 220 460 l 1
 215 479 l 1
 190 504 l 1
 171 509 l 1
EndSplineSet
EndChar

StartChar: glyph78
Encoding: 256 8216 78
Width: 270
VWidth: 0
Flags: W
HStem: 347 253
VStem: 56 158
LayerCount: 2
Back
Fore
SplineSet
56 484 m 1
 60 500 l 1
 85 552 l 1
 101 569 l 1
 153 596 l 1
 169 600 l 1
 185 598 l 1
 200 590 l 1
 210 577 l 1
 214 561 l 1
 212 545 l 1
 204 530 l 1
 191 520 l 1
 159 505 l 1
 158 500 l 1
 177 489 l 1
 202 465 l 1
 211 451 l 1
 214 411 l 1
 211 394 l 1
 202 381 l 1
 177 356 l 1
 164 347 l 1
 123 344 l 1
 107 347 l 1
 93 356 l 1
 69 381 l 1
 60 394 l 1
 56 411 l 1
 56 484 l 1
EndSplineSet
EndChar

StartChar: glyph79
Encoding: 257 8217 79
Width: 270
VWidth: 0
Flags: W
HStem: 344 253 580 20G<107 164>
VStem: 57 157
LayerCount: 2
Back
Fore
SplineSet
214 509 m 1xa0
 214 460 l 1
 211 444 l 1
 177 381 l 1
 117 348 l 1
 101 344 l 1
 85 346 l 1
 71 354 l 1
 61 367 l 1
 57 383 l 1
 59 399 l 1
 67 414 l 1
 80 424 l 1
 112 439 l 1
 113 444 l 1
 93 455 l 1
 69 479 l 1
 60 493 l 1
 56 533 l 1
 60 550 l 1
 69 563 l 1
 93 588 l 1
 107 597 l 1xa0
 148 600 l 1x60
 164 597 l 1
 177 588 l 1
 202 563 l 1
 211 550 l 1
 214 509 l 1xa0
EndSplineSet
EndChar

StartChar: glyph80
Encoding: 258 8242 80
Width: 221
VWidth: 0
Flags: W
HStem: 348 249
VStem: 56 130
LayerCount: 2
Back
Fore
SplineSet
56 385 m 1
 56 533 l 1
 59 550 l 1
 68 563 l 1
 93 588 l 1
 106 597 l 1
 123 600 l 1
 139 597 l 1
 152 588 l 1
 177 563 l 1
 186 550 l 1
 189 535 l 1
 187 520 l 1
 137 370 l 1
 128 356 l 1
 117 348 l 1
 91 345 l 1
 68 356 l 1
 59 370 l 1
 56 385 l 1
EndSplineSet
EndChar

StartChar: glyph81
Encoding: 259 8243 81
Width: 442
VWidth: 0
Flags: W
HStem: 348 249
LayerCount: 2
Back
Fore
SplineSet
278 385 m 1
 277 533 l 1
 280 550 l 1
 290 563 l 1
 314 588 l 1
 328 597 l 1
 344 600 l 1
 360 597 l 1
 374 588 l 1
 398 563 l 1
 407 550 l 1
 410 535 l 1
 408 520 l 1
 358 370 l 1
 349 356 l 1
 338 348 l 1
 312 345 l 1
 290 356 l 1
 280 370 l 1
 278 385 l 1
56 385 m 1
 56 533 l 1
 59 550 l 1
 68 563 l 1
 93 588 l 1
 107 597 l 1
 123 600 l 1
 139 597 l 1
 152 588 l 1
 177 563 l 1
 186 550 l 1
 189 535 l 1
 187 520 l 1
 137 370 l 1
 128 356 l 1
 117 348 l 1
 91 345 l 1
 68 356 l 1
 59 370 l 1
 56 385 l 1
EndSplineSet
EndChar

